<?xml version="1.0" encoding="utf-8"?>
<!-- Generator: Adobe Illustrator 25.2.0, SVG Export Plug-In . SVG Version: 6.00 Build 0)  -->
<svg version="1.1" id="Layer_1" xmlns="http://www.w3.org/2000/svg" xmlns:xlink="http://www.w3.org/1999/xlink" x="0px" y="0px"
	 viewBox="0 0 478.4 81" style="enable-background:new 0 0 478.4 81;" xml:space="preserve">
<style type="text/css">
	.st0{fill:#12284C;}
	.st1{fill:#008986;}
	.st2{fill:#AB79B4;}
	.st3{fill:#F7A66A;}
	.st4{fill:#64B7E5;}
	.st5{fill:#177CB3;}
	.st6{fill:#F7A469;}
	.st7{fill:#62B8E7;}
	.st8{fill:#AA79B4;}
	.st9{fill:#157BB4;}
	.st10{fill:#68B6E5;}
	.st11{fill:#F6A56B;}
	.st12{fill:#1178B7;}
	.st13{fill:#911A49;}
</style>
<g>
	<path class="st0" d="M23.9,40.8v-8h20.8v19c-2,2-4.9,3.7-8.8,5.2c-3.8,1.5-7.7,2.2-11.6,2.2c-5,0-9.3-1-13.1-3.1
		c-3.7-2.1-6.5-5.1-8.4-9C0.9,43.1,0,38.9,0,34.3c0-5,1-9.4,3.1-13.2c2.1-3.9,5.1-6.8,9.1-8.9c3.1-1.6,6.9-2.4,11.4-2.4
		c5.9,0,10.5,1.2,13.9,3.7C40.9,16,43,19.4,44,23.8l-9.6,1.8c-0.7-2.3-1.9-4.2-3.8-5.5c-1.9-1.4-4.2-2-7-2c-4.2,0-7.6,1.3-10,4
		c-2.5,2.7-3.7,6.6-3.7,11.9c0,5.7,1.3,9.9,3.8,12.7c2.5,2.8,5.8,4.2,9.9,4.2c2,0,4-0.4,6.1-1.2s3.8-1.8,5.2-2.9v-6.1L23.9,40.8
		L23.9,40.8z"/>
	<path class="st0" d="M73.5,47.3l9.1,1.5c-1.2,3.3-3,5.9-5.5,7.6s-5.7,2.6-9.5,2.6c-6,0-10.5-2-13.3-5.9c-2.3-3.1-3.4-7.1-3.4-11.9
		c0-5.7,1.5-10.2,4.5-13.5c3-3.2,6.8-4.9,11.4-4.9c5.1,0,9.2,1.7,12.2,5.1c3,3.4,4.4,8.6,4.3,15.6H60.2c0.1,2.7,0.8,4.8,2.2,6.3
		s3.2,2.3,5.3,2.3c1.4,0,2.6-0.4,3.6-1.2C72.2,50.3,73,49,73.5,47.3z M74,38c-0.1-2.6-0.8-4.7-2-6c-1.3-1.4-2.9-2.1-4.8-2.1
		c-2,0-3.7,0.7-4.9,2.2c-1.3,1.4-1.9,3.4-1.9,5.9C60.3,38,74,38,74,38z"/>
	<path class="st0" d="M122,58.3h-9.1V40.7c0-3.7-0.2-6.1-0.6-7.2c-0.4-1.1-1-2-1.9-2.5c-0.9-0.6-1.9-0.9-3.2-0.9
		c-1.6,0-3,0.4-4.3,1.3c-1.3,0.9-2.1,2-2.6,3.5c-0.5,1.4-0.7,4.1-0.7,7.9v15.7h-9.1V23.7H99v5.1c3-3.9,6.8-5.9,11.4-5.9
		c2,0,3.9,0.4,5.5,1.1c1.7,0.7,2.9,1.7,3.8,2.8c0.9,1.1,1.4,2.4,1.8,3.8c0.3,1.4,0.5,3.5,0.5,6.2L122,58.3L122,58.3z"/>
	<path class="st0" d="M147.1,23.7V31h-6.2v13.9c0,2.8,0.1,4.5,0.2,4.9c0.1,0.5,0.4,0.8,0.8,1.2c0.4,0.3,0.9,0.5,1.5,0.5
		c0.8,0,2.1-0.3,3.7-0.9l0.8,7.1c-2.1,0.9-4.5,1.4-7.2,1.4c-1.6,0-3.1-0.3-4.5-0.8c-1.3-0.6-2.3-1.3-2.9-2.1c-0.6-0.9-1-2.1-1.3-3.6
		c-0.2-1.1-0.3-3.2-0.3-6.4V31h-4.2v-7.3h4.2v-6.9l9.2-5.3v12.2C140.8,23.7,147.1,23.7,147.1,23.7z"/>
	<path class="st0" d="M173.4,47.3l9.1,1.5c-1.2,3.3-3,5.9-5.5,7.6s-5.7,2.6-9.5,2.6c-6,0-10.5-2-13.3-5.9c-2.3-3.1-3.4-7.1-3.4-11.9
		c0-5.7,1.5-10.2,4.5-13.5c3-3.2,6.8-4.9,11.4-4.9c5.1,0,9.2,1.7,12.2,5.1c3,3.4,4.4,8.6,4.3,15.6h-22.9c0.1,2.7,0.8,4.8,2.2,6.3
		c1.4,1.5,3.2,2.3,5.3,2.3c1.4,0,2.6-0.4,3.6-1.2C172.2,50.3,172.9,49,173.4,47.3z M174,38c-0.1-2.6-0.8-4.7-2-6
		c-1.3-1.4-2.9-2.1-4.8-2.1c-2,0-3.7,0.7-4.9,2.2c-1.3,1.4-1.9,3.4-1.9,5.9C160.3,38,174,38,174,38z"/>
	<path class="st0" d="M199.3,58.3h-9.1V23.7h8.5v4.9c1.4-2.3,2.8-3.8,3.9-4.6c1.2-0.7,2.5-1.1,4-1.1c2.1,0,4.1,0.6,6,1.7l-2.8,8
		c-1.5-1-3-1.5-4.3-1.5c-1.3,0-2.4,0.3-3.3,1.1s-1.6,2-2.1,3.8c-0.5,1.8-0.8,5.7-0.8,11.6L199.3,58.3L199.3,58.3z"/>
	<path class="st0" d="M216.2,23.7h8.5v5.1c1.1-1.7,2.6-3.1,4.5-4.2c1.9-1.1,4-1.6,6.3-1.6c4,0,7.4,1.6,10.2,4.7s4.2,7.5,4.2,13.2
		c0,5.8-1.4,10.3-4.2,13.5c-2.8,3.2-6.2,4.8-10.3,4.8c-1.9,0-3.6-0.4-5.2-1.1c-1.5-0.8-3.2-2.1-4.9-3.9v17.4h-9.1V23.7z M225.2,40.4
		c0,3.9,0.8,6.8,2.3,8.6c1.5,1.9,3.4,2.8,5.6,2.8c2.1,0,3.9-0.8,5.3-2.6c1.4-1.7,2.1-4.5,2.1-8.4c0-3.6-0.7-6.3-2.2-8.1
		c-1.4-1.8-3.3-2.6-5.4-2.6c-2.2,0-4.1,0.9-5.6,2.6C226,34.5,225.2,37,225.2,40.4z"/>
	<path class="st0" d="M265.9,58.3h-9.1V23.7h8.5v4.9c1.4-2.3,2.8-3.8,3.9-4.6c1.2-0.7,2.5-1.1,4-1.1c2.1,0,4.1,0.6,6,1.7l-2.8,8
		c-1.5-1-3-1.5-4.3-1.5c-1.3,0-2.4,0.3-3.3,1.1c-0.9,0.7-1.6,2-2.1,3.8c-0.5,1.8-0.8,5.7-0.8,11.6L265.9,58.3L265.9,58.3z"/>
	<path class="st0" d="M303.1,47.3l9.1,1.5c-1.2,3.3-3,5.9-5.5,7.6c-2.5,1.7-5.7,2.6-9.5,2.6c-6,0-10.5-2-13.3-5.9
		c-2.3-3.1-3.4-7.1-3.4-11.9c0-5.7,1.5-10.2,4.5-13.5c3-3.2,6.8-4.9,11.4-4.9c5.1,0,9.2,1.7,12.2,5.1c3,3.4,4.4,8.6,4.3,15.6h-22.9
		c0.1,2.7,0.8,4.8,2.2,6.3c1.4,1.5,3.2,2.3,5.3,2.3c1.4,0,2.6-0.4,3.6-1.2C301.9,50.3,302.6,49,303.1,47.3z M303.6,38
		c-0.1-2.6-0.8-4.7-2-6c-1.3-1.4-2.9-2.1-4.8-2.1c-2,0-3.7,0.7-4.9,2.2c-1.3,1.4-1.9,3.4-1.9,5.9C290,38,303.6,38,303.6,38z"/>
	<path class="st0" d="M336,23.7V31h-6.2v13.9c0,2.8,0.1,4.5,0.2,4.9c0.1,0.5,0.4,0.8,0.8,1.2c0.4,0.3,0.9,0.5,1.5,0.5
		c0.8,0,2.1-0.3,3.7-0.9l0.8,7.1c-2.1,0.9-4.5,1.4-7.2,1.4c-1.6,0-3.1-0.3-4.5-0.8s-2.3-1.3-2.9-2.1c-0.6-0.9-1-2.1-1.3-3.6
		c-0.2-1.1-0.3-3.2-0.3-6.4V31h-4.2v-7.3h4.2v-6.9l9.2-5.3v12.2C329.8,23.7,336,23.7,336,23.7z"/>
	<g>
		<path class="st0" d="M410.7,58.3V10.6h9.1v47.7H410.7z"/>
		<path class="st0" d="M429.3,58.3V10.6h9.1v47.7H429.3z"/>
		<path class="st0" d="M477.9,34l-9,1.6c-0.3-1.8-1-3.2-2.1-4.1c-1.1-0.9-2.5-1.4-4.2-1.4c-2.3,0-4.1,0.8-5.4,2.4
			c-1.4,1.6-2,4.2-2,7.9c0,4.1,0.7,7,2.1,8.7c1.4,1.7,3.2,2.5,5.5,2.5c1.7,0,3.2-0.5,4.3-1.5c1.1-1,1.9-2.7,2.3-5.1l9,1.5
			c-0.9,4.1-2.7,7.2-5.4,9.3s-6.2,3.2-10.6,3.2c-5.1,0-9.1-1.6-12.1-4.8s-4.5-7.6-4.5-13.2c0-5.7,1.5-10.1,4.5-13.3
			s7.1-4.8,12.2-4.8c4.2,0,7.6,0.9,10,2.7C475,27.5,476.8,30.2,477.9,34z"/>
	</g>
	<g>
		<g>
			<path class="st1" d="M357.7,35.2c3.4-3,4.8-6.7,5-9.1c0.4-6.4-4.4-9.9-4.4-9.9c6.4,11.2-2.6,17.2-4.3,18.9
				c-8.8,7.8-6.9,14.3-6.6,15.9c1.5-8.4,4.9-10.9,8.4-13.9c0.2,0.3,0.4,0.5,0.6,0.8c0.3,0.4,0.8,1.2,1.4,2.1l-1.7,0
				c-0.1-0.2-0.4-0.3-0.6-0.3c-0.4,0.1-0.6,0.4-0.5,0.7c0.1,0.4,0.4,0.6,0.7,0.6c0.2,0,0.3-0.1,0.4-0.3l2.1-0.1
				c0.3,0.5,0.5,1.1,0.7,1.7l-5,0.1c-0.1-0.2-0.4-0.3-0.6-0.2c-0.4,0.1-0.6,0.4-0.5,0.7c0.1,0.4,0.4,0.6,0.7,0.6
				c0.2,0,0.3-0.1,0.4-0.3l5.2-0.1c0.2,0.5,0.3,1,0.4,1.6l-6.9,0c-0.1-0.2-0.4-0.3-0.6-0.2c-0.4,0.1-0.6,0.4-0.5,0.7
				c0.1,0.4,0.4,0.6,0.7,0.6c0.2,0,0.4-0.2,0.5-0.3l7,0c0.1,0.5,0.1,1.1,0.1,1.6l-8.8,0.1c-0.1-0.2-0.4-0.3-0.6-0.3
				c-0.4,0.1-0.6,0.4-0.5,0.7c0.1,0.4,0.4,0.6,0.7,0.6c0.2,0,0.3-0.1,0.4-0.3l8.8-0.1c0,0.5-0.1,1.1-0.2,1.6l-9.4,0.2
				c-0.1-0.2-0.4-0.3-0.6-0.3c-0.4,0.1-0.6,0.4-0.5,0.7c0.1,0.4,0.4,0.6,0.7,0.6c0.2,0,0.3-0.1,0.4-0.3l9.3-0.2
				c-0.1,0.5-0.3,1-0.5,1.6l-7.5,0.1c-0.1-0.2-0.4-0.3-0.6-0.3c-0.4,0.1-0.6,0.4-0.5,0.7s0.4,0.6,0.7,0.6c0.2,0,0.3-0.1,0.4-0.3
				l7.2-0.1c-0.4,1.1-1,2.2-1.9,3.4c0,0,3.8-2.5,4.3-10.1C361.7,39.3,357.7,35.2,357.7,35.2z"/>
			<path class="st0" d="M348.8,34.9c-3.4,3-4.8,6.7-5,9.1c-0.4,6.4,4.4,9.9,4.4,9.9c-6.4-11.2,2.6-17.2,4.3-18.9
				c8.8-7.8,6.9-14.3,6.6-15.9c-1.5,8.4-4.9,10.9-8.4,13.9c-0.2-0.3-0.4-0.5-0.6-0.8c-0.3-0.4-0.8-1.2-1.4-2.1l1.7,0
				c0.1,0.2,0.4,0.3,0.6,0.3c0.4-0.1,0.6-0.4,0.5-0.7c-0.1-0.4-0.4-0.6-0.7-0.6c-0.2,0-0.3,0.1-0.4,0.3l-2.1,0.1
				c-0.3-0.5-0.5-1.1-0.7-1.7l5-0.1c0.1,0.2,0.4,0.3,0.6,0.2c0.4-0.1,0.6-0.4,0.5-0.7c-0.1-0.4-0.4-0.6-0.7-0.6
				c-0.2,0-0.3,0.1-0.4,0.3l-5.2,0.1c-0.2-0.5-0.3-1-0.4-1.6l6.9,0c0.1,0.2,0.4,0.3,0.6,0.2c0.4-0.1,0.6-0.4,0.5-0.7
				c-0.1-0.4-0.4-0.6-0.7-0.6c-0.2,0-0.4,0.2-0.5,0.3l-7,0c-0.1-0.5-0.1-1.1-0.1-1.6l8.8-0.1c0.1,0.2,0.4,0.3,0.6,0.3
				c0.4-0.1,0.6-0.4,0.5-0.7c-0.1-0.4-0.4-0.6-0.7-0.6c-0.2,0-0.3,0.1-0.4,0.3l-8.8,0.1c0-0.5,0.1-1.1,0.2-1.6l9.4-0.2
				c0.1,0.2,0.4,0.3,0.6,0.3c0.4-0.1,0.6-0.4,0.5-0.7c-0.1-0.4-0.4-0.6-0.7-0.6c-0.2,0-0.3,0.1-0.4,0.3l-9.3,0.2
				c0.1-0.5,0.3-1,0.5-1.6l7.5-0.1c0.1,0.2,0.4,0.3,0.6,0.3c0.4-0.1,0.6-0.4,0.5-0.7s-0.4-0.6-0.7-0.6c-0.2,0-0.3,0.1-0.4,0.3
				l-7.2,0.1c0.4-1.1,1-2.2,1.9-3.4c0,0-3.8,2.5-4.3,10.1C344.8,30.8,348.8,34.9,348.8,34.9z"/>
		</g>
		<g>
			<g>
				<g>
					
						<rect x="383.6" y="50.9" transform="matrix(0.9984 -5.679918e-02 5.679918e-02 0.9984 -2.2885 22.006)" class="st2" width="4.8" height="0.7"/>
					
						<rect x="383.7" y="52.8" transform="matrix(0.9984 -5.679918e-02 5.679918e-02 0.9984 -2.3955 22.0329)" class="st3" width="5.4" height="0.7"/>
					
						<rect x="383.8" y="54.7" transform="matrix(0.9984 -5.679918e-02 5.679918e-02 0.9984 -2.5048 22.0422)" class="st4" width="5.4" height="0.7"/>
					
						<rect x="383.9" y="56.4" transform="matrix(0.9984 -5.679918e-02 5.679918e-02 0.9984 -2.6005 22.0313)" class="st5" width="4.7" height="0.7"/>
				</g>
				<g>
					
						<rect x="378.6" y="37.2" transform="matrix(0.9984 -5.679918e-02 5.679918e-02 0.9984 -1.5177 21.6859)" class="st6" width="4.2" height="0.7"/>
					
						<rect x="378.7" y="39.1" transform="matrix(0.9984 -5.679918e-02 5.679918e-02 0.9984 -1.6259 21.6952)" class="st7" width="4.2" height="0.7"/>
					
						<rect x="378.8" y="41" transform="matrix(0.9984 -5.679918e-02 5.679918e-02 0.9984 -1.7352 21.7045)" class="st8" width="4.2" height="0.7"/>
					
						<rect x="379.2" y="42.7" transform="matrix(0.9984 -5.679918e-02 5.679918e-02 0.9984 -1.8296 21.7193)" class="st9" width="4" height="0.7"/>
				</g>
				<g>
					
						<rect x="382.1" y="24.9" transform="matrix(0.9984 -5.679918e-02 5.679918e-02 0.9984 -0.8117 21.8814)" class="st10" width="4.8" height="0.7"/>
					
						<rect x="382.2" y="26.8" transform="matrix(0.9984 -5.679918e-02 5.679918e-02 0.9984 -0.9204 21.8913)" class="st2" width="4.8" height="0.7"/>
					
						<rect x="382.3" y="28.7" transform="matrix(0.9984 -5.679918e-02 5.679918e-02 0.9984 -1.0308 21.8877)" class="st11" width="4.4" height="0.7"/>
					
						<rect x="382.4" y="30.4" transform="matrix(0.9984 -5.679918e-02 5.679918e-02 0.9984 -1.1272 21.873)" class="st12" width="3.6" height="0.7"/>
				</g>
			</g>
			<path class="st13" d="M387.3,24.7c1.3,2.4,0.9,4.8-1.5,7c-1.7,1.6-3.7,3.1-4.9,5.1c-1.6,2.7-1.2,5.4,1,7.4c3,2.7,4.6,3.4,6.8,6.4
				c1.2,1.8,1.2,3.4,1,4.2c-0.5,3-2.9,4.3-2.9,4.3c0.7-0.8,1.3-2,1.5-2.9c0.9-2.8-0.6-5.6-3.2-7.5c-1.8-1.3-3.3-2.1-5-3.4
				c-3.7-2.8-4.3-7.3-0.5-10.6c1.9-1.6,3.6-3,5.3-4.6c2-2,2.3-4.1,0.7-6.4c-0.3-0.4-0.7-1-1.3-1.5C384.4,22.2,386.3,23,387.3,24.7z"
				/>
		</g>
		<path class="st0" d="M349.7,13.5v-1.7h18.9c2.5,0,4.6,0.1,6.4,0.3c1.8,0.2,3.2,0.5,4.2,0.9c2,0.8,3.7,2.1,4.9,4.1
			c1.1,1.7,1.7,3.5,1.8,5.6c0.7,0.7,1.8,1.7,2.2,3.3c0-0.5,0.1-1.6,0.1-2.2c0-3-0.7-5.7-2.2-8c-1.5-2.3-3.5-4-6-4.9
			c-1.3-0.5-2.8-0.8-4.7-1c-1.9-0.2-4.1-0.3-6.6-0.3h-21.1v6.3c0,0,0.8-1.1,1.1-1.4C348.8,14.2,349.7,13.5,349.7,13.5z"/>
		<path class="st0" d="M347.9,16.3"/>
		<path class="st0" d="M361.2,18.8c0.1,0.1,0.4,0.7,0.5,0.9l3.8,0c1.9,0,3.5,0,4.6,0c0.6,0,1,0,1.4,0c0.3,0,0.6,0,0.8,0.1
			c1.4,0.2,2.3,0.7,2.9,1.5c0.3,0.4,0.6,0.8,0.7,1.3c0.2,0.5,0.3,1.1,0.3,1.8c0,1.2-0.3,2.2-0.8,2.9c-0.5,0.7-1.2,1.2-2.1,1.6
			c-0.2,0.1-0.5,0.1-1,0.2c-1.4,0.2-3.8,0.3-7.2,0.3l-2.6-0.1c-0.3,0.7-0.5,1.2-1.2,2.4h1.1h2.7c2.3,0,4.2,0,5.6-0.1
			c0.7-0.1,1.4-0.1,1.9-0.2c0.5-0.1,1-0.2,1.4-0.3c1.3-0.4,2.5-1.3,3.2-2.4c0.8-1.2,1.2-2.6,1.2-4.2c0-0.9-0.1-1.7-0.4-2.5
			c-0.3-0.8-0.6-1.5-1.2-2.1c-1-1.2-2.5-1.9-4.2-2.2h0h0c-0.3,0-0.6-0.1-1-0.1c-1.2-0.1-3.2-0.1-6.1-0.1l-5.2,0L361.2,18.8z"/>
		<g>
			<path class="st1" d="M356.9,56.2v0.3h-7.3v-1.8c-1.5-0.6-0.9-0.3-2.2-1.1v5.1h1.1h10.6v-5.1C359,54,358.4,55.3,356.9,56.2z"/>
			<path class="st1" d="M383.8,56.6H380l-6.5-9.7l0,0c-1.2-1.8-2.3-3.3-3.1-4.5c-0.8-1.2-1.5-2-2-2.5c-1-1-2.1-1.8-3.3-2.2
				c-1.2-0.4-2.9-0.6-5.1-0.6h-0.7c0.4,0.5,0.8,1.1,1.2,2.2c1.6,0,3.2,0.2,3.9,0.5c0.8,0.3,1.6,0.8,2.4,1.7c0.4,0.4,1,1.2,1.8,2.3
				c0.8,1.1,1.8,2.6,3.1,4.4l0,0l7.2,10.7h5L383.8,56.6z"/>
		</g>
	</g>
</g>
</svg>
