<?xml version="1.0" encoding="utf-8"?>
<!-- Generator: Adobe Illustrator 25.2.0, SVG Export Plug-In . SVG Version: 6.00 Build 0)  -->
<svg version="1.1" id="Layer_1" xmlns="http://www.w3.org/2000/svg" xmlns:xlink="http://www.w3.org/1999/xlink" x="0px" y="0px"
	 viewBox="0 0 512 512" style="enable-background:new 0 0 512 512;" xml:space="preserve">
<style type="text/css">
	.st0{fill:#727272;}
	.st1{fill:#FFFFFF;stroke:#3469B2;stroke-width:1.5;}
	.st2{fill:#3469B2;stroke:#3469B2;}
	.st3{fill:#3568B2;stroke:#3568B2;}
	.st4{fill:#3469B2;}
</style>
<g>
	<path class="st0" d="M217.69,327.86H142.4v-217.7h75.29v73.67h70.54v-73.67h75.45v217.7h-75.45V293.5h-70.54V327.86z"/>
	<path class="st1" d="M217.16,328.21h-75.29V110.5h75.29v73.67h70.54V110.5h75.45v217.7h-75.45v-34.36h-70.54V328.21z"/>
	<g>
		<path class="st2" d="M101.96,282.53c-0.06,0.05-0.44,0-0.53,0c-0.05,0.23,0.07,0.53,0,0.75h-0.21c0,0.03,0.01,0.31,0,0.32
			c-0.04,0.02-0.3-0.04-0.32,0c-0.09,0.14,0.05,0.38,0,0.53h-0.21c0,0.15,0.04,0.28,0,0.43h-0.21c-0.08,0.29,0,0.76,0,1.07
			c0,0.88,0,1.78,0,2.67c0,0.29,0.09,0.69,0,0.96c-0.01,0.02-0.29,0-0.32,0c-0.05,0.14,0.05,0.29,0,0.43h-0.21
			c0,0.16,0.04,0.39,0,0.53c-0.02,0-0.32-0.02-0.32,0c-0.08,0.22,0.05,0.52,0,0.75c-0.22,0.05-0.52,0-0.75,0
			c-0.06,0.15,0.06,0.38,0,0.53h-0.21v0.21h-0.21c-0.04,0.07,0.05,0.27,0,0.32c-0.06,0.05-0.24-0.04-0.32,0v0.21h-0.21
			c-0.02,0.04,0.02,0.3,0,0.32c-0.19,0.1-0.54-0.07-0.75,0v0.21c-0.09,0.05-0.23-0.05-0.32,0v0.21h-0.21c0,0.05,0.03,0.29,0,0.32
			c-0.06,0.05-0.24-0.04-0.32,0v0.21H96.1c-0.02,0.04,0.03,0.3,0,0.32h-0.21c-0.07,0.2,0.09,0.57,0,0.75c-0.01,0.01-0.29,0-0.32,0
			c-0.13,0.48,0.12,0.02-0.21,0.21c0,0.33-0.08,0.75,0,1.07h0.21c0.06,0.13-0.06,0.4,0,0.53c0.01,0.03,0.29-0.02,0.32,0v0.21h0.21
			v0.22c0.15,0.06,0.38-0.06,0.53,0c0,0.03-0.02,0.31,0,0.32c0.6,0.17,1.63-0.19,2.24,0v0.21c0.09,0,0.24-0.03,0.32,0
			c0,0.13-0.05,0.42,0,0.53c-0.07,0.05-0.24-0.05-0.32,0v0.21h-0.21c-0.04,0.09,0,0.22,0,0.32h-0.21v0.21
			c-0.14,0.05-0.41-0.08-0.53,0c-0.06,0.04,0.05,0.29,0,0.32c-0.09,0.05-0.23-0.05-0.32,0v0.21h-0.21v0.21
			c-0.15,0.06-0.38-0.06-0.53,0c0,0.07,0.04,0.5,0,0.53h-0.21v0.21c-0.14,0-0.41-0.06-0.53,0c-0.02,0,0,0.31,0,0.32h-0.21
			c0,0.17,0.05,0.37,0,0.53c-0.24,0.03-0.63-0.09-0.85,0c0,0.04,0,0.07,0,0.11c0,0.21-0.07,0.07-0.21,0.11v0.21
			c-0.15,0.06-0.38-0.06-0.53,0c0,0.03,0.02,0.31,0,0.32c-0.22,0.07-0.52-0.05-0.75,0c0,0.06,0.02,0.52,0,0.53
			c-0.16,0.09-0.56-0.04-0.75,0v0.21c-0.15,0.05-0.39-0.06-0.53,0v0.21h-0.21c0,0.03,0.01,0.31,0,0.32c-0.18,0.09-0.65,0-0.85,0
			v0.21c-0.19,0.04-0.58-0.09-0.75,0c-0.02,0.01,0,0.3,0,0.32h-0.21v0.21c-0.16,0.06-0.37-0.06-0.53,0v0.21
			c-0.2,0.04-0.57-0.1-0.75,0c-0.05,0.02,0.03,0.26,0,0.32h-0.21v0.21c-0.05,0-0.26-0.02-0.32,0c0,0.03,0.01,0.31,0,0.32
			c-0.09,0.05-0.42,0-0.53,0v0.21h-0.21v0.21h-0.21c0,0.03,0.02,0.31,0,0.32c-0.22,0.11-0.61-0.07-0.85,0v0.21
			c-0.15,0-0.28-0.04-0.43,0c0,0.03,0.01,0.31,0,0.32c-0.1,0.05-0.41,0-0.53,0v0.21c-0.22,0.05-0.55-0.09-0.75,0v0.21
			c-0.06,0.03-0.25,0-0.32,0c-0.03,0.05,0,0.28,0,0.32h-0.21v0.21c-0.18,0.09-0.55-0.08-0.75,0c-0.04,0.01,0.02,0.3,0,0.32
			c-0.09,0.05-0.23-0.05-0.32,0c0,0.04,0,0.07,0,0.11c0,0.19-0.07,0.07-0.21,0.11v0.21c-0.32,0.1-0.75-0.1-1.07,0
			c-0.02,0.01,0,0.29,0,0.32c-0.14,0.04-0.29-0.05-0.43,0c0,0,0.04,0.34-0.32,0.21c0-0.03,0-0.07,0-0.11
			c-0.03-0.01,0.02-0.09-0.21-0.1v0.21c-0.02,0-0.31-0.02-0.32,0c-0.07,0.14,0.05,0.38,0,0.53h-0.21c0,0.16,0.04,0.39,0,0.53
			c-0.23,0-0.52-0.05-0.75,0c-0.05,0.21,0,0.52,0,0.74c-0.14,0.05-0.39,0-0.53,0c-0.2,0.58,0.34-0.1-0.21,0.21
			c0,0.14,0.06,0.41,0,0.53c-0.01,0.01-0.29,0-0.32,0c-0.05,0.16,0,0.36,0,0.53c-0.24,0.13-0.12-0.08-0.21,0.21
			c-0.07,0-0.27-0.03-0.32,0c-0.07,0.04,0.05,0.29,0,0.32c-0.2,0.1-0.54-0.09-0.75,0c-0.03,0.01,0,0.37,0,0.43
			c-0.23,0-0.52-0.05-0.75,0c-0.06,0.17,0.05,0.37,0,0.53h-0.21c0,0.03,0.01,0.31,0,0.32c-0.03,0.02-0.31-0.03-0.32,0
			c-0.1,0.21,0.05,0.52,0,0.75h-0.21c0.04,0.23,0,0.51,0,0.74h0.21c0.05,0.24-0.05,0.5,0,0.75c0.12,0,0.44-0.06,0.53,0
			c0.08,0.05-0.08,0.48,0,0.53c0.13,0.09,0.38-0.05,0.53,0v0.21c0.61,0,1.2,0,1.81,0v-0.21c0.11-0.05,0.32,0.06,0.43,0v-0.21
			c0.11,0,0.22,0.04,0.32,0c0-0.02-0.02-0.31,0-0.32c0.2-0.08,0.58,0.11,0.75,0c0.03-0.03,0-0.47,0-0.53
			c0.56-0.32,0.01,0.38,0.21-0.21c0.03,0,0.31,0.01,0.32,0c0.07-0.12-0.05-0.39,0-0.53h0.21c0-0.09-0.06-0.48,0-0.53
			c0.08-0.08,0.42,0.04,0.53,0v-0.22h0.21v-0.21c0.37-0.15,0.91,0.13,1.28,0c0.02-0.01,0-0.29,0-0.32c0.06-0.02,0.27,0,0.32,0v-0.21
			c0.12-0.05,0.31,0.05,0.43,0c0-0.01-0.02-0.32,0-0.32c0.33-0.11,0.74,0.1,1.07,0v-0.21c0.14-0.04,0.21,0.08,0.21-0.11
			c0-0.03,0-0.07,0-0.11c0.09-0.05,0.23,0.05,0.32,0c0.02-0.02-0.03-0.31,0-0.32c0.2-0.1,0.54,0.08,0.75,0v-0.21h0.21
			c0-0.05-0.03-0.29,0-0.32c0.04-0.04,0.27,0.02,0.32,0v-0.21c0.12,0,0.43,0.05,0.53,0v-0.21c0.11-0.06,0.31,0.06,0.43,0
			c0.02-0.01,0-0.28,0-0.32c0.11-0.04,0.2,0,0.32,0v-0.21c0.23-0.07,0.51,0.04,0.75,0c0-0.07-0.05-0.51,0-0.53
			c0.13-0.09,0.38,0.04,0.53,0v-0.21c0.3,0,0.67,0.07,0.96,0c0,0,0-0.29,0-0.32c0.23-0.03,0.52,0,0.75,0v-0.21
			c0.42-0.07,0.87,0.1,1.28,0c0,0,0-0.29,0-0.32c0.44,0,0.85,0,1.28,0v-0.21c0.13-0.04,0.41,0.06,0.53,0v-0.21
			c0.11,0,0.22,0.03,0.32,0c0-0.04-0.02-0.31,0-0.32c0.28-0.11,0.67,0.09,0.96,0v-0.21c0.06-0.02,0.27,0,0.32,0v-0.21
			c0.12-0.05,0.31,0.05,0.43,0c0-0.04-0.03-0.31,0-0.32c0.13-0.07,0.39,0.05,0.53,0v-0.21c0.1,0,0.46,0.05,0.53,0
			c0.04-0.03,0-0.46,0-0.53c0.2-0.05,0.58,0.09,0.75,0c0.04-0.02,0-0.47,0-0.53c0.17-0.06,0.37,0.06,0.53,0v-0.21h0.21
			c0-0.04-0.01-0.31,0-0.32c0.14-0.09,0.38,0.06,0.53,0v-0.21c0.13-0.04,0.21,0.08,0.21-0.11c0-0.03,0-0.07,0-0.11
			c0.13-0.05,0.42,0.07,0.53,0c0.01-0.01,0-0.29,0-0.32c0.07-0.03,0.24,0,0.32,0v-0.21c0.11-0.04,0.33,0.06,0.43,0
			c0.03-0.02,0-0.28,0-0.32c0.08-0.03,0.24,0,0.32,0v-0.21c0.1-0.03,0.46,0.06,0.53,0c0.07-0.06-0.04-0.44,0-0.53h0.21v-0.21h0.21
			c0.03-0.06-0.05-0.29,0-0.32c0.13-0.09,0.38,0.04,0.53,0v-0.21c0.06,0,0.27,0.03,0.32,0v-0.21h0.21c0.01-0.01,0-0.29,0-0.32h0.21
			v-0.21c0.22-0.09,0.64,0.11,0.85,0c0.03-0.02,0-0.47,0-0.53c0.14-0.05,0.28,0,0.43,0v-0.21c0.14-0.05,0.41,0.07,0.53,0
			c0.01-0.01,0-0.29,0-0.32c0.06-0.02,0.27,0,0.32,0v-0.21c0.12-0.05,0.31,0.05,0.43,0c0-0.01-0.02-0.31,0-0.32
			c0.13-0.07,0.39,0.04,0.53,0v-0.21c0.22-0.04,0.52,0,0.75,0v-0.21c0.17-0.05,0.37,0.07,0.53,0c0.02-0.01,0-0.29,0-0.32
			c0.22-0.04,0.52,0,0.75,0v-0.21c0.08-0.04,0.25,0.05,0.32,0v-0.21h0.21c0-0.01-0.02-0.32,0-0.32c0.31-0.12,0.76,0.12,1.07,0v-0.21
			h0.21c0-0.1-0.04-0.23,0-0.32h0.21v-0.21c0.22-0.11,0.61,0.06,0.85,0v-0.21c0.15,0,0.28,0.04,0.43,0c0-0.03-0.01-0.32,0-0.32
			c0.13-0.07,0.39,0.04,0.53,0v-0.21c0.19,0,0.57,0.07,0.75,0c0.02-0.01,0-0.29,0-0.32c0.06-0.02,0.27,0,0.32,0v-0.22
			c0.13-0.07,0.39,0.05,0.53,0v-0.21c0.17,0,0.6,0.07,0.75,0c0.01-0.01,0-0.29,0-0.32h0.21v-0.21c0.09-0.05,0.23,0.05,0.32,0v-0.32
			c0.1-0.07,0.31,0.04,0.43,0v-0.22c0.13,0,0.42,0.06,0.53,0v-0.21c0.11,0,0.22,0.04,0.32,0c0-0.02-0.02-0.31,0-0.32
			c0.2-0.08,0.57,0.1,0.75,0v-0.21h0.21c0-0.04-0.03-0.27,0-0.32h0.21v-0.21c0.24-0.1,0.62,0.11,0.85,0v-0.21h0.21
			c0-0.07-0.03-0.25,0-0.32h0.21v-0.21c0.22-0.09,0.65,0.1,0.85,0c0.02-0.01-0.02-0.28,0-0.32h0.21v-0.21h0.21v-0.21
			c0.37-0.14,0.91,0.13,1.28,0c0.02-0.01,0-0.29,0-0.32c0.08-0.03,0.24,0,0.32,0v-0.21c0.22-0.09,0.52,0.08,0.75,0
			c0.02-0.01,0-0.29,0-0.32c0.36,0,0.71,0,1.07,0v-0.21c0.13-0.05,0.28,0.05,0.43,0v-0.21c0.17-0.06,0.37,0.05,0.53,0
			c0-0.03-0.02-0.32,0-0.32c0.33-0.1,0.74,0.08,1.07,0v-0.21c0.14-0.05,0.29,0.05,0.43,0v-0.21c0.08,0,0.25,0.03,0.32,0
			c0-0.03-0.01-0.31,0-0.32c0.14-0.09,0.38,0.05,0.53,0v-0.21c0.09,0,0.35,0.05,0.43,0c0.01-0.01,0-0.28,0-0.32
			c0.1-0.04,0.21,0,0.32,0v-0.21c0.2-0.09,0.53,0.05,0.75,0v-0.21c0.17,0,0.37,0.03,0.53,0c0-0.01-0.02-0.31,0-0.32
			c0.14-0.07,0.38,0.04,0.53,0v-0.22c0.14,0,0.29,0.05,0.43,0c0-0.04-0.03-0.3,0-0.32c0.13-0.07,0.39,0.05,0.53,0v-0.21
			c0.18-0.04,0.35,0,0.53,0v-0.21c0.2-0.05,0.56,0.07,0.75,0c0.02-0.01,0-0.29,0-0.32c0.17-0.06,0.37,0.06,0.53,0v-0.21h0.21
			c0-0.01-0.02-0.32,0-0.32c0.23-0.11,0.62,0.08,0.85,0v-0.21c0.16-0.04,0.21,0.09,0.21-0.11c0-0.03,0-0.07,0-0.11
			c0.13-0.06,0.4,0.06,0.53,0c0.01-0.01,0-0.29,0-0.32c0.23,0,0.52,0.05,0.75,0c0-0.07-0.05-0.51,0-0.53c0.13-0.09,0.38,0.04,0.53,0
			v-0.21c0.21,0,0.55,0.07,0.75,0v-0.21c0.17,0,0.37,0.03,0.53,0c0-0.04-0.03-0.31,0-0.32c0.11-0.06,0.31,0.06,0.43,0v-0.21
			c0.49-0.14,1.11,0.12,1.6,0c0,0,0-0.29,0-0.32c0.24-0.05,0.5,0.05,0.75,0v-0.21c0.24-0.05,0.5,0.05,0.75,0v-0.21
			c0.24,0,0.52,0.04,0.75,0c0-0.02-0.02-0.32,0-0.32c0.23-0.07,0.64,0.09,0.85,0v-0.21h0.21c0-0.07-0.03-0.25,0-0.32
			c0.29-0.01,0.69,0.09,0.96,0v-0.21c0.08,0,0.25,0.03,0.32,0v-0.21c0.22-0.07,0.52,0.04,0.75,0c0-0.02-0.02-0.32,0-0.32
			c0.2-0.07,0.53,0,0.75,0v-0.21c0.14-0.05,0.41,0.07,0.53,0v-0.21h0.21c0-0.01-0.02-0.32,0-0.32c0.27-0.11,0.78,0,1.07,0v-0.21
			c0.14-0.05,0.41,0.07,0.53,0c0.01-0.01,0-0.29,0-0.32h0.21v-0.21c0.22-0.09,0.52,0.07,0.75,0v-0.21c0.05,0,0.28,0.03,0.32,0
			c0.03-0.03,0-0.28,0-0.32h0.21v-0.21c0.21-0.09,0.55,0.1,0.75,0c0.05-0.03-0.07-0.28,0-0.32c0.08-0.05,0.22,0.04,0.32,0v-0.21
			h0.21v-0.21c0.32-0.1,0.74,0.08,1.07,0c0,0,0-0.29,0-0.32c0.74,0,1.5,0,2.24,0c0,0.03-0.01,0.32,0,0.32
			c0.59,0.14,1.22-0.14,1.81,0v0.21c0.17,0.05,0.37-0.05,0.53,0v0.21c0.23,0,0.52-0.05,0.75,0c0,0.03-0.01,0.32,0,0.32
			c0.32,0.08,0.75-0.09,1.07,0v0.21c0.15,0,0.28-0.04,0.43,0c0,0.03-0.02,0.31,0,0.32c0.15,0.05,2.14,0.05,2.34,0c0,0,0-0.29,0-0.32
			c0.22-0.04,0.52,0,0.75,0v-0.21c0.31-0.06,0.78,0.11,1.07,0c0.02-0.01,0-0.29,0-0.32h0.21v-0.21c0.22-0.09,0.52,0.07,0.75,0v-0.21
			c0.11,0,0.22,0.04,0.32,0c0-0.01-0.02-0.31,0-0.32h0.21v0.21c0,0.04,0,0.07,0,0.11c0.13,0,0.42-0.05,0.53,0
			c0-0.27-0.03-0.59,0-0.85h0.21c0,0.03-0.02,0.3,0,0.32c0.16,0.08,0.56,0,0.75,0c0-0.04-0.02-0.31,0-0.32
			c0.14-0.07,0.39,0.07,0.53,0c-0.04,0.1,0,0.2,0,0.32h-0.21c-0.05,0.14,0.08,0.42,0,0.53c-0.02,0.03-0.28-0.02-0.32,0v0.21h-0.21
			v0.21h-0.21c0,0.03,0.01,0.31,0,0.32c-0.04,0.02-0.3-0.04-0.32,0c-0.04,0.07,0.06,0.5,0,0.53c-0.13,0.08-0.59,0-0.75,0v0.21
			c-0.41,0.07-0.86,0-1.28,0v0.21c-0.15,0.04-0.4-0.09-0.53,0c-0.05,0.02,0,0.46,0,0.53c-0.12,0.05-0.39,0-0.53,0
			c-0.04,0.09,0.04,0.23,0,0.32h-0.21c0,0.14,0.05,0.29,0,0.43c-0.09,0-0.48-0.06-0.53,0c-0.06,0.05,0.04,0.24,0,0.32h-0.21
			c0,0.14,0.05,0.29,0,0.43h-0.21c-0.05,0.15,0.08,0.39,0,0.53c-0.02,0.03-0.28-0.03-0.32,0c-0.02,0.01,0,0.3,0,0.32h-0.21
			c-0.07,0.22,0.04,0.52,0,0.75c-0.15,0.03-0.27,0-0.43,0c0,0-0.29,0-0.32,0c0,0.24,0.05,0.51,0,0.75c-0.24,0.03-0.63-0.09-0.85,0
			v0.21c-0.03,0-0.07,0-0.11,0c-0.03,0-0.07,0-0.11,0c0,0.03,0.02,0.3,0,0.32c-0.13,0.06-0.4-0.06-0.53,0v0.21
			c-0.3,0.07-0.67-0.09-0.96,0c-0.02,0,0,0.31,0,0.32c-0.17,0-0.38-0.05-0.53,0c0,0.04,0.02,0.42,0,0.43
			c-0.31,0.11-0.76-0.09-1.07,0c-0.02,0,0,0.32,0,0.32c-0.14,0.05-0.39,0-0.53,0c-0.38,0.78,0.64-0.27-0.21,0.21
			c0,0.03,0.02,0.31,0,0.32c-0.38,0.14-0.89-0.13-1.28,0v0.21h-0.21v0.21c-0.12,0.06-0.2-0.06-0.32,0c0,0.03,0.02,0.31,0,0.32
			c-0.2,0.08-0.55-0.08-0.75,0v0.22h-0.21c0,0.03,0.01,0.31,0,0.32c-0.14,0.07-0.59,0-0.75,0v0.21c-0.15,0.04-0.4-0.07-0.53,0v0.21
			c-0.11,0-0.22-0.04-0.32,0c0,0.03,0.01,0.31,0,0.32c-0.08,0.05-0.33,0-0.43,0v0.21c-0.15,0.05-0.4-0.07-0.53,0
			c-0.03,0.01,0,0.28,0,0.32c-0.15,0.04-0.38,0-0.53,0v0.21c-0.16,0.05-0.38-0.05-0.53,0v0.21c-0.7,0.16-1.53-0.17-2.24,0
			c-0.01,0,0,0.29,0,0.32c-0.36,0-0.71,0-1.07,0v0.21c-0.17,0.05-0.36-0.06-0.53,0v0.21c-0.19,0.04-0.58-0.09-0.75,0
			c-0.05,0.02,0.03,0.26,0,0.32h-0.21v0.21c-0.12,0.06-0.2-0.06-0.32,0c0,0.04,0.01,0.31,0,0.32c-0.06,0.05-0.34,0-0.43,0
			c-0.05,0.08,0,0.31,0,0.42c-0.06,0.03-0.25,0-0.32,0c0,0.03,0.01,0.31,0,0.32c-0.1,0.04-0.46-0.08-0.53,0
			c-0.06,0.05,0,0.44,0,0.53h-0.21v0.21c-0.12,0.04-0.44-0.08-0.53,0c-0.08,0.07,0.04,0.43,0,0.53H140v0.21
			c-0.05,0.02-0.3-0.03-0.32,0c-0.09,0.13,0.04,0.38,0,0.53h-0.21c0,0.36,0,0.71,0,1.07h0.21c0.04,0.11-0.07,0.33,0,0.43
			c0.03,0.04,0.28-0.03,0.32,0c0.03,0.01,0,0.3,0,0.32c0.16,0.05,0.36,0,0.53,0v0.21c0.11,0.04,0.33-0.07,0.43,0
			c0.03,0.02,0,0.28,0,0.32c0.06,0.02,0.27,0,0.32,0v0.21c0.18,0.06,0.55,0.02,0.75,0v-0.21c0.21-0.05,0.53,0,0.75,0
			c0-0.04-0.02-0.31,0-0.32c0.13-0.06,0.4,0.06,0.53,0v-0.21c0.19-0.04,0.58,0.09,0.75,0c0.01-0.01,0-0.29,0-0.32
			c0.69-0.39-0.11,0.44,0.21-0.22c0.15,0,0.4,0.05,0.53,0v-0.21c0.73-0.17,1.62,0.17,2.34,0c0,0,0-0.29,0-0.32
			c0.24-0.05,0.5,0.05,0.75,0v-0.21c0.16,0,0.39,0.04,0.53,0c0-0.03-0.02-0.32,0-0.32c0.4-0.12,0.87,0.09,1.28,0v-0.22
			c0.17-0.06,0.37,0.05,0.53,0v-0.21c0.23,0,0.52,0.04,0.75,0c0-0.02-0.02-0.32,0-0.32c0.48-0.12,1.01,0.08,1.49,0v-0.21
			c0.23-0.05,0.53,0.07,0.75,0c0.02-0.01,0-0.29,0-0.32c0.16-0.04,0.36,0,0.53,0v-0.21c0.3-0.08,0.75,0,1.07,0v-0.21l0.68-0.45
			l0.72-0.83l1.33-0.78l1.61-1.11c95.46-39.96,164.73,2.22,166.8,3.7c2.07,1.48,11.55,5.62,15.99,3.85c4.44-1.78,1.77-3.55,0.3-4.44
			c-1.48-0.89-0.59-2.37-0.59-2.37c52.98,6.51,92.35-21.91,95.96-25.83c1.02-1.1,0.83-2.89,0.83-2.89l-0.89-0.05l-0.11-0.83
			l-2.85-0.74l-0.59-1.92c-0.3-0.89,2.96-3.85,3.85-4.44c0.89-0.59,2.67-2.66,2.67-2.66c5.62-5.33,0.89-5.92,0.89-5.92
			c-97.09,81.11-167.6-102.93-294.89-25.96l0,0c0,0-0.51,1.47-0.34,2.3l0.11,0.83l-0.42,0.32c0,0.07-0.03,0.26,0,0.32
			c0.13,0,0.42-0.05,0.53,0v0.21h0.21v0.21c0.28,0.08,2.2,0.06,2.56,0v-0.21c0.24,0,0.51,0.03,0.75,0v-0.21
			c0.22-0.04,0.86-0.08,1.07,0c0.1,0.04-0.19,0.29,0.21,0.21v-0.21c0.11,0,0.22,0.04,0.32,0c0-0.05-0.03-0.3,0-0.32h0.21
			c0,0.03-0.02,0.31,0,0.32c0.16,0.07,0.57,0,0.75,0c0-0.03-0.01-0.32,0-0.32c0.24-0.06,0.61,0,0.85,0c0.75,0,1.49,0,2.24,0v-0.21
			c0.14-0.05,0.41,0.07,0.53,0c0.01-0.01,0-0.29,0-0.32h0.21v-0.21c0.12-0.05,0.43,0.06,0.53,0v-0.21h0.21c0-0.04-0.03-0.27,0-0.32
			c0.07,0,0.26,0.03,0.32,0v-0.21c0.44-0.15,1.03,0.07,1.49,0v-0.21c0.38,0,0.92,0.11,1.28,0c0.02-0.01,0-0.29,0-0.32
			c0.18-0.04,0.35,0,0.53,0v-0.21c0.54-0.13,1.17,0.13,1.7,0c0,0,0-0.29,0-0.32c0.28-0.03,0.59,0.07,0.85,0v-0.21
			c0.14,0,0.29,0.04,0.43,0v-0.21c0.58-0.15,1.24,0.14,1.81,0c0,0,0-0.29,0-0.32c0.24-0.05,0.5,0.05,0.75,0v-0.21
			c0.27,0,0.58,0.03,0.85,0c0-0.02,0-0.32,0-0.32c0.16-0.02,0.26,0,0.43,0c0,0.03-0.01,0.32,0,0.32c0.5,0.1,0.25-0.28,0.32-0.32
			h0.21c0,0.03,0.02,0.31,0,0.32c0.13,0,0.42-0.05,0.53,0c0.15-0.13-0.15-0.34,0.21-0.32c0,0,0,0.3,0,0.32c0.62,0,1.43,0.14,2.03,0
			c0,0,0-0.29,0-0.32c0.82,0,1.75,0.12,2.56,0v-0.21c0.42,0,0.87,0.06,1.28,0v-0.21c0.4,0,1.47-0.11,1.81,0v0.21
			c0.06,0.02,0.27,0,0.32,0v0.21c0.28,0.08,0.66,0,0.96,0c0.92,0,1.85,0,2.77,0c0.2,0,0.67-0.09,0.85,0c0.02,0.01,0,0.3,0,0.32h0.21
			v0.21c-0.5,0.28,0.1-0.34-0.21,0.32c-0.4,0-1.26-0.11-1.6,0v0.21h-0.21v0.21c-0.1,0.04-0.24-0.05-0.32,0
			c-0.06,0.03,0.06,0.29,0,0.32c-0.2,0.08-0.53-0.05-0.75,0c0,0.06,0.03,0.52,0,0.53c-0.35,0.14-0.9-0.07-1.28,0v0.21
			c-0.23,0.04-0.51,0-0.75,0v0.21c-0.23,0.05-0.52-0.05-0.75,0c0,0.03,0.02,0.31,0,0.32c-0.22,0.07-0.52-0.05-0.75,0v0.21
			c-0.61,0-1.2,0-1.81,0c0,0.05,0.03,0.52,0,0.53c-0.35,0.14-0.91-0.06-1.28,0v0.21c-0.45,0-1.7-0.12-2.02,0
			c-0.02,0.01,0,0.29,0,0.32c-0.1,0.04-0.22,0-0.32,0v0.21c-0.14,0.05-0.29-0.05-0.43,0v0.21c-0.31,0.08-0.77-0.12-1.07,0
			c-0.02,0.01,0,0.28,0,0.32h-0.21v0.21c-0.16,0.06-0.37-0.06-0.53,0c0,0.03,0.02,0.31,0,0.32c-0.3,0.09-0.75,0-1.07,0v0.21
			c-0.24,0.05-0.52-0.08-0.75,0v0.21c-0.15,0.07-0.39-0.07-0.53,0c-0.02,0,0,0.31,0,0.32c-0.24,0.03-0.51,0-0.75,0v0.21
			c-0.2,0.04-0.57-0.1-0.75,0c-0.03,0.01,0,0.28,0,0.32h-0.21v0.21c-0.13,0.07-0.39-0.05-0.53,0v0.21c-0.08,0-0.24-0.03-0.32,0
			c0,0.03,0.02,0.31,0,0.32c-0.19,0.09-0.54-0.05-0.75,0v0.21c-0.42,0-1.98-0.11-2.24,0c-0.03,0.01,0,0.48,0,0.53
			c-0.53,0-1.07,0-1.6,0v0.21c-0.14,0.05-0.29-0.05-0.43,0c0,0.03,0.02,0.31,0,0.32c-0.31,0.1-0.74-0.07-1.07,0v0.21
			c-0.17,0-0.37-0.05-0.53,0c0,0.03,0.02,0.31,0,0.32c-0.28,0.09-0.66,0-0.96,0v0.21c-0.15,0.04-0.4-0.07-0.53,0v0.21
			c-0.11,0-0.22-0.04-0.32,0c0,0.03,0.02,0.31,0,0.32c-0.44,0.15-1.03-0.07-1.49,0v0.21c-0.26,0-0.72-0.1-0.96,0
			c-0.02,0,0,0.31,0,0.32c-0.1,0.04-0.21,0-0.32,0v0.21c-0.35,0.11-0.91,0-1.28,0v0.21c-0.15,0.04-0.4-0.07-0.53,0
			c-0.02,0.01,0,0.3,0,0.32c-0.14,0.04-0.28,0-0.43,0v0.21c-0.26,0.07-0.59-0.03-0.85,0c-0.2,0.58,0.36-0.11-0.21,0.21
			c0,0.16,0.04,0.39,0,0.53c-0.14,0-0.42-0.07-0.53,0c-0.03,0.02,0.02,0.31,0,0.32c-0.14,0.07-0.38-0.05-0.53,0v0.21
			c-0.15,0.04-0.28,0-0.43,0v0.21c-0.24,0.06-0.63-0.11-0.85,0c-0.03,0.01,0.01,0.29,0,0.32h-0.21v0.21h-0.21
			c-0.03,0.05,0.04,0.3,0,0.32c-0.28,0.11-0.76-0.05-1.07,0v0.21c-0.2,0-0.56-0.07-0.75,0v0.21c-0.18,0-0.36-0.04-0.53,0
			c0,0.03,0.02,0.31,0,0.32c-0.27,0.09-0.67,0-0.96,0v0.21c-0.39,0.06-0.91-0.14-1.28,0c-0.02,0,0,0.31,0,0.32
			c-0.04,0-0.28-0.03-0.32,0v0.21c-0.17,0.06-0.56,0-0.75,0v0.21c-0.15,0.04-0.4-0.07-0.53,0c-0.02,0.01,0,0.31,0,0.32
			c-0.16,0.03-0.37,0-0.53,0v0.21c-0.28,0.06-0.7-0.12-0.96,0c-0.02,0.01,0,0.28,0,0.32c-0.06,0-0.29-0.03-0.32,0
			c-0.06,0.05,0.07,0.39,0,0.43c-0.27,0.13-0.68-0.11-0.96,0c-0.04,0.01,0.02,0.3,0,0.32c-0.09,0.05-0.23-0.05-0.32,0v0.21h-0.21
			c0,0.03,0.02,0.31,0,0.32c-0.3,0.11-0.76-0.08-1.07,0v0.21c-0.15,0.04-0.28,0-0.43,0v0.21c-0.24,0.06-0.51-0.05-0.75,0
			c0,0.03,0,0.32,0,0.32c-0.4,0.09-0.87,0-1.28,0v0.21c-0.15,0.04-0.4-0.07-0.53,0c-0.03,0.01,0,0.28,0,0.32
			c-0.16,0.03-0.37,0-0.53,0v0.21c-0.46,0.11-1.03-0.12-1.49,0v0.21c-0.15,0.07-0.39-0.07-0.53,0c-0.02,0.01,0,0.28,0,0.32
			c-0.07,0.03-0.24,0-0.32,0v0.21c-0.19,0.08-0.54-0.05-0.75,0v0.21c-0.24,0-0.52-0.05-0.75,0c0,0.06,0.03,0.52,0,0.53
			c-0.31,0.13-0.93,0-1.28,0c-0.02,0.05,0,0.27,0,0.32h-0.21c-0.02,0.05,0.04,0.4,0,0.42c-0.16,0.1-0.56-0.07-0.75,0
			c-0.02,0.01,0,0.3,0,0.32c-0.17,0.05-0.36-0.06-0.53,0v0.21c-0.12,0-0.21-0.04-0.32,0c0,0.03,0.01,0.31,0,0.32
			c-0.19,0.09-0.55-0.08-0.75,0v0.21h-0.21v0.21c-0.13,0.06-0.4-0.06-0.53,0c-0.02,0,0,0.31,0,0.32c-0.23,0-0.52-0.05-0.75,0
			c0,0.06,0.03,0.51,0,0.53c-0.1,0.06-0.42,0-0.53,0v0.21c-0.15,0.05-0.39-0.09-0.53,0v0.21h-0.21c0,0.09,0.04,0.23,0,0.32
			c-0.02,0-0.31-0.02-0.32,0c-0.06,0.11,0.07,0.43,0,0.53h-0.21v0.21h-0.21v0.22c-0.14,0.05-0.42-0.09-0.53,0
			c-0.03,0.02,0.02,0.3,0,0.32c-0.06,0.03-0.25,0-0.32,0c0,0.08,0.05,0.48,0,0.53c-0.08,0.07-0.33-0.04-0.43,0v0.21
			c-0.02,0-0.3-0.02-0.32,0v0.21h-0.21c0,0.03,0.02,0.31,0,0.32c-0.3,0.11-0.76-0.09-1.07,0v0.21c-0.15,0-0.28-0.04-0.43,0
			c0,0.03,0.02,0.31,0,0.32c-0.23,0.08-0.62-0.08-0.85,0v0.21c-0.14,0.05-0.29-0.05-0.43,0v0.21c-0.05,0-0.27-0.02-0.32,0
			c0,0.08,0.05,0.49,0,0.53c-0.09,0.07-0.43-0.04-0.53,0v0.21h-0.21c0,0.34,0,0.72,0,1.07c-0.22,0.12-0.14-0.07-0.21,0.21
			c-0.04,0-0.31-0.02-0.32,0c-0.11,0.24,0.12,0.62,0,0.85c-0.02,0.03-0.48,0-0.53,0c-0.05,0.2,0.08,0.57,0,0.75
			c-0.03,0.06-0.37-0.04-0.43,0c-0.05,0.03,0,0.46,0,0.53c-0.17,0.05-0.36-0.06-0.53,0v0.21c-0.08,0-0.24-0.03-0.32,0
			c0,0.23,0.05,0.52,0,0.74c-0.23,0.05-0.52,0-0.75,0c0,0.06,0.03,0.51,0,0.53c-0.17,0.09-0.55-0.05-0.75,0v0.21
			c-0.15,0-0.39-0.05-0.53,0c0,0.03,0.02,0.31,0,0.32c-0.28,0.09-0.67-0.05-0.96,0v0.22c-0.48,0-1.13-0.12-1.6,0
			c-0.02,0,0,0.32,0,0.32c-0.32,0.01-0.64,0-0.96,0v0.21c-0.15,0.04-0.4-0.09-0.53,0c-0.05,0.03,0,0.46,0,0.53
			c-0.14,0.05-0.39,0-0.53,0v0.22h-0.21c0,0.07,0.04,0.5,0,0.53c-0.14,0.09-0.57-0.04-0.75,0v0.21c-0.14,0-0.42-0.07-0.53,0
			c-0.01,0.01,0,0.29,0,0.32c-0.07,0.02-0.24,0-0.32,0v0.21c-0.14,0.05-0.29-0.05-0.43,0v0.21c-0.09,0.04-0.23-0.04-0.32,0
			c0,0.03,0.02,0.31,0,0.32c-0.15,0.07-0.57,0-0.75,0v0.21c-0.2,0.04-0.58-0.1-0.75,0c-0.05,0.03,0,0.46,0,0.53
			c-0.15,0.04-0.38,0-0.53,0v0.21c-0.15,0.05-0.4-0.09-0.53,0c-0.06,0.03,0.02,0.26,0,0.32h-0.21v0.21c-0.12,0.06-0.2-0.06-0.32,0
			c0,0.03,0.02,0.31,0,0.32c-0.19,0.09-0.55-0.08-0.75,0v0.21h-0.21v0.21c-0.15,0.06-0.38-0.06-0.53,0c0,0.03,0.02,0.31,0,0.32
			c-0.14,0.06-0.39-0.08-0.53,0v0.21h-0.21c0,0.03,0.01,0.31,0,0.32c-0.08,0.05-0.43,0-0.53,0v0.21c-0.14,0.04-0.41-0.08-0.53,0
			v0.21H96.1c0,0.06,0.03,0.28,0,0.32h-0.21v0.21c-0.05,0.02-0.28-0.04-0.32,0c-0.06,0.05,0.03,0.24,0,0.32h-0.21v0.21
			c-0.12,0.06-0.2-0.06-0.32,0c0,0.6,0,1.21,0,1.81c0.03,0,0.31-0.02,0.32,0c0.04,0.09-0.07,0.47,0,0.53c0.1,0.08,0.41-0.05,0.53,0
			v0.21h0.21v0.21h0.21c0,0.07-0.03,0.26,0,0.32c0.07,0,0.26-0.03,0.32,0v0.21c0.22,0.07,1.57,0.06,1.81,0v-0.21
			c0.14,0,0.29,0.05,0.43,0c0,0-0.02-0.32,0-0.32c0.19-0.09,0.54,0.04,0.75,0v-0.21c0.15-0.05,0.38,0.05,0.53,0v-0.21
			c0.11,0,0.22,0.04,0.32,0c0-0.03-0.02-0.31,0-0.32c0.09-0.07,0.32,0.04,0.43,0v-0.21c0.29,0,0.57,0.03,0.85,0
			c0.04-0.1,0-0.21,0-0.32h0.21c0.04-0.12-0.05-0.31,0-0.43c0.31,0,0.78,0.1,1.07,0c0.02-0.01,0-0.29,0-0.32
			c0.14-0.04,0.27,0,0.43,0v-0.21c0.27-0.08,0.57,0.03,0.85,0c0-0.02-0.02-0.32,0-0.32c0.29-0.08,0.66,0,0.96,0v-0.21
			c0.17-0.05,0.37,0.07,0.53,0v-0.21c0.18,0,0.36,0.03,0.53,0c0-0.03-0.02-0.32,0-0.32c0.46-0.14,1.02,0.08,1.49,0v-0.21
			c0.23-0.05,0.53,0.07,0.75,0c0.02-0.01,0-0.29,0-0.32c0.37,0,0.7,0,1.07,0v-0.21c0.72-0.11,1.52,0.11,2.24,0v-0.21
			c0.25-0.03,0.62,0.08,0.85,0c0.02-0.01,0-0.29,0-0.32c0.14-0.05,0.29,0.05,0.43,0v-0.21c0.27,0,0.58,0.03,0.85,0
			c0.04-0.1,0-0.22,0-0.32h0.21c0.04-0.11,0-0.31,0-0.43c0.23,0,0.52,0.05,0.75,0c0-0.04-0.02-0.31,0-0.32
			c0.11-0.06,0.43,0.07,0.53,0v-0.21h0.21c0-0.01-0.02-0.31,0-0.32c0.04-0.04,0.27,0.02,0.32,0v-0.21h0.21v-0.21
			c0.09-0.05,0.23,0.05,0.32,0c0.02-0.01-0.04-0.31,0-0.32c0.15-0.06,0.37,0,0.53,0c0.71,0,1.54,0.11,2.24,0v-0.21
			c0.32,0,0.64,0.01,0.96,0c-0.05,0.21,0,0.53,0,0.75c-0.14,0.05-0.29-0.05-0.43,0v0.21c-0.29,0-0.57-0.03-0.85,0
			c-0.03,0.27,0,0.58,0,0.85h-0.21v0.21c-0.16,0-0.62-0.08-0.75,0c-0.04,0.02,0,0.47,0,0.53c-0.22,0.05-0.52,0-0.75,0
			c0,0.06,0.03,0.51,0,0.53c-0.12,0.08-0.39-0.05-0.53,0v0.21c-0.16,0.03-0.37,0-0.53,0v0.21c-0.13,0.04-0.42-0.08-0.53,0
			c-0.08,0.05,0.07,0.47,0,0.53c-0.07,0.05-0.34,0-0.43,0c-0.06,0.12,0,0.39,0,0.53c-0.08,0.02-0.23,0-0.32,0v0.21
			c-0.23,0.07-0.51-0.05-0.75,0c0,0.28,0.03,0.58,0,0.85c-0.25,0.05-0.51-0.08-0.75,0v0.21c-0.05,0-0.26-0.02-0.32,0v0.21h-0.21
			c-0.02,0.04,0.03,0.3,0,0.32c-0.11,0.07-0.41-0.05-0.53,0v0.21h-0.21c-0.02,0.02,0,0.29,0,0.32c-0.1,0.04-0.21,0-0.32,0v0.21
			c-0.16,0.07-0.57,0-0.75,0v0.21c-0.15,0.05-0.4-0.09-0.53,0c-0.03,0.02,0,0.3,0,0.32c-0.57,0.32,0.06-0.35-0.21,0.21
			c-0.36,0-0.71,0-1.07,0v0.21c-0.14,0.05-0.29-0.05-0.43,0c0,0.06,0.03,0.51,0,0.53c-0.22,0.12-0.62-0.1-0.85,0
			c-0.05,0.02,0.02,0.27,0,0.32h-0.21v0.21h-0.21v0.21c-0.14,0.07-0.59,0-0.75,0c-0.03,0.05,0,0.25,0,0.32c-0.04,0-0.31-0.02-0.32,0
			c-0.05,0.09,0.07,0.47,0,0.53c-0.08,0.07-0.43-0.04-0.53,0v0.21h-0.21c0,0.15,0.05,0.4,0,0.53c-0.08,0-0.48-0.05-0.53,0v0.21
			h-0.21c0,0.32,0.09,0.76,0,1.07c-0.01,0.02-0.29,0-0.32,0c-0.04,0.18,0,0.35,0,0.53h-0.21c-0.02,0.16,0,0.26,0,0.43h0.21
			c0.05,0.17-0.05,0.37,0,0.53c0.03,0,0.31-0.02,0.32,0c0.08,0.28,0,0.76,0,1.06c0.15,0.06,0.38-0.06,0.53,0v0.22h0.21
			c0,0.07-0.03,0.25,0,0.32h0.21v0.21c0.26,0.1,0.78,0,1.07,0v0.21c0.2,0.04,0.57-0.08,0.75,0c0.02,0.01,0,0.3,0,0.32h0.21v0.21
			h-0.21c0,0.03,0.01,0.31,0,0.32c-0.18,0.08-0.55-0.05-0.75,0v0.21c-0.61,0-1.2,0-1.81,0v0.21c-0.28,0.27-0.2,0.71-0.35,1.08
			c0,0.67,0,1.41-0.22,2.07c-0.07,0.44-0.22,0.89-0.44,1.33c0,0.67-0.3,1.26-0.44,1.92c-0.15,0.3-0.37,0.59-0.44,0.96
			c-0.44,0.3-0.74,0.67-1.11,0.96L101.96,282.53z"/>
	</g>
	<path class="st3" d="M274.15,191.22c21.82,7.77,46.77-6.3,55.72-31.43c8.95-25.13-1.49-51.81-23.31-59.58s-46.77,6.3-55.72,31.43
		C241.89,156.77,252.32,183.45,274.15,191.22z"/>
	<g>
		<path class="st4" d="M93.49,362.42c-0.12,1-0.37,1.99-0.75,2.95c-0.38,0.97-0.94,1.83-1.68,2.59c-0.95,0.98-2.06,1.73-3.33,2.24
			c-1.26,0.51-2.58,0.77-3.94,0.77c-1.36,0-2.65-0.23-3.88-0.68c-1.23-0.45-2.33-1.17-3.31-2.15c-0.69-0.69-1.25-1.42-1.66-2.19
			c-0.42-0.76-0.73-1.57-0.95-2.43c-0.21-0.86-0.36-1.76-0.43-2.7c-0.07-0.94-0.11-1.94-0.11-2.99c0-1.03,0.03-2.02,0.11-2.97
			c0.07-0.95,0.21-1.86,0.43-2.72c0.21-0.86,0.53-1.67,0.95-2.43c0.42-0.76,0.97-1.49,1.66-2.18c0.98-0.98,2.08-1.7,3.31-2.17
			c1.23-0.46,2.52-0.7,3.88-0.7c1.36,0,2.67,0.24,3.94,0.73c1.26,0.49,2.37,1.22,3.33,2.2c0.74,0.76,1.3,1.62,1.68,2.58
			c0.38,0.95,0.63,1.93,0.75,2.93h-4.73c-0.05-0.55-0.17-1.03-0.36-1.45c-0.19-0.42-0.45-0.83-0.79-1.24
			c-0.41-0.52-0.95-0.92-1.63-1.18c-0.68-0.26-1.41-0.39-2.2-0.39c-0.74,0-1.45,0.14-2.13,0.43c-0.68,0.29-1.27,0.7-1.77,1.25
			c-0.43,0.45-0.76,0.98-1,1.58c-0.24,0.6-0.41,1.22-0.52,1.88c-0.11,0.66-0.17,1.32-0.2,1.99c-0.02,0.67-0.03,1.29-0.03,1.86
			c0,0.57,0.01,1.19,0.03,1.86c0.02,0.67,0.09,1.33,0.2,1.99c0.11,0.66,0.28,1.28,0.52,1.88c0.24,0.6,0.57,1.12,1,1.57
			c0.5,0.55,1.09,0.97,1.77,1.25c0.68,0.29,1.39,0.43,2.13,0.43c0.79,0,1.52-0.14,2.2-0.41c0.68-0.27,1.22-0.67,1.63-1.2
			c0.67-0.81,1.05-1.74,1.15-2.79H93.49z"/>
		<path class="st4" d="M97.46,370.51v-25.38h18.08v4.19h-13.46v5.91h11.85v4.15h-11.85v6.95h13.46v4.19H97.46z"/>
		<path class="st4" d="M135.48,370.51l-10.99-17.43v17.43h-4.55v-25.38h4.9l10.85,17.18v-17.18h4.55v25.38H135.48z"/>
		<path class="st4" d="M155.56,349.43v21.08h-4.62v-21.08h-7.52v-4.3h19.65v4.3H155.56z"/>
		<path class="st4" d="M180.76,370.51l-4.22-9.59h-5.62v9.59h-4.65v-25.38h10.7c1.5,0,2.81,0.22,3.92,0.66
			c1.11,0.44,2.03,1.03,2.76,1.76c0.73,0.73,1.26,1.56,1.61,2.5c0.35,0.94,0.52,1.93,0.52,2.95c0,1.72-0.42,3.2-1.27,4.46
			c-0.85,1.25-1.97,2.14-3.38,2.67l4.65,10.38H180.76z M181.15,353.01c0-0.5-0.1-0.98-0.29-1.45c-0.19-0.46-0.47-0.88-0.82-1.24
			c-0.36-0.36-0.8-0.64-1.32-0.84c-0.53-0.2-1.11-0.3-1.75-0.3h-6.09v7.59h6.16c1.31,0,2.33-0.32,3.04-0.97
			C180.79,355.15,181.15,354.22,181.15,353.01z"/>
		<path class="st4" d="M189.85,370.51v-25.38h18.08v4.19h-13.46v5.91h11.85v4.15h-11.85v6.95h13.46v4.19H189.85z"/>
		<path class="st4" d="M234.84,370.51v-11.06h-10.42v11.06h-4.62v-25.38h4.62v9.92h10.42v-9.92h4.62v25.38H234.84z"/>
		<path class="st4" d="M264.99,357.84c0,1.05-0.04,2.04-0.11,2.97c-0.07,0.93-0.23,1.83-0.46,2.68c-0.24,0.86-0.57,1.67-0.99,2.43
			c-0.42,0.76-0.97,1.49-1.66,2.18c-0.98,0.98-2.1,1.7-3.37,2.17c-1.27,0.46-2.58,0.7-3.94,0.7s-2.67-0.23-3.94-0.7
			c-1.26-0.47-2.39-1.19-3.36-2.17c-0.69-0.69-1.25-1.42-1.66-2.18c-0.42-0.76-0.75-1.58-0.98-2.43c-0.24-0.86-0.39-1.75-0.46-2.68
			c-0.07-0.93-0.11-1.92-0.11-2.97c0-1.03,0.04-2.02,0.11-2.97c0.07-0.95,0.23-1.86,0.46-2.72c0.24-0.86,0.57-1.67,0.98-2.43
			c0.42-0.76,0.97-1.49,1.66-2.18c0.98-0.98,2.1-1.7,3.36-2.17c1.26-0.46,2.58-0.7,3.94-0.7s2.67,0.23,3.94,0.7
			c1.26,0.46,2.39,1.19,3.37,2.17c0.69,0.69,1.25,1.42,1.66,2.18c0.42,0.76,0.75,1.57,0.99,2.43c0.24,0.86,0.39,1.77,0.46,2.72
			C264.95,355.82,264.99,356.81,264.99,357.84z M260.29,357.84c0-0.57-0.01-1.19-0.04-1.86c-0.02-0.67-0.1-1.33-0.21-1.99
			c-0.12-0.65-0.3-1.28-0.55-1.88c-0.25-0.6-0.59-1.12-1.02-1.58c-0.5-0.55-1.11-0.97-1.83-1.25c-0.72-0.29-1.44-0.43-2.18-0.43
			c-0.74,0-1.47,0.14-2.18,0.43c-0.72,0.29-1.32,0.7-1.82,1.25c-0.43,0.45-0.77,0.98-1.02,1.58c-0.25,0.6-0.44,1.22-0.56,1.88
			c-0.12,0.66-0.19,1.32-0.21,1.99c-0.02,0.67-0.04,1.29-0.04,1.86c0,0.57,0.01,1.19,0.04,1.86c0.02,0.67,0.09,1.32,0.21,1.97
			c0.12,0.65,0.3,1.27,0.56,1.86c0.25,0.6,0.59,1.12,1.02,1.58c0.5,0.55,1.11,0.97,1.82,1.25c0.72,0.29,1.44,0.43,2.18,0.43
			c0.74,0,1.47-0.14,2.18-0.43c0.72-0.29,1.32-0.7,1.83-1.25c0.43-0.45,0.77-0.98,1.02-1.58c0.25-0.6,0.43-1.22,0.55-1.86
			c0.12-0.64,0.19-1.3,0.21-1.97C260.28,359.03,260.29,358.41,260.29,357.84z"/>
		<path class="st4" d="M287.93,362.96c0,1.19-0.2,2.22-0.59,3.08c-0.39,0.86-0.9,1.6-1.52,2.22c-0.98,0.98-2.17,1.68-3.56,2.09
			c-1.39,0.42-2.88,0.63-4.46,0.63c-1.36,0-2.7-0.2-4.03-0.59c-1.32-0.39-2.51-1.07-3.56-2.02c-0.76-0.69-1.4-1.54-1.9-2.56
			c-0.5-1.02-0.75-2.13-0.75-3.35h4.72c0,0.62,0.13,1.2,0.38,1.74c0.25,0.54,0.57,1,0.95,1.38c0.55,0.55,1.21,0.91,1.99,1.09
			c0.78,0.18,1.53,0.27,2.27,0.27c0.88,0,1.72-0.1,2.51-0.3c0.79-0.2,1.42-0.56,1.9-1.06c0.29-0.31,0.52-0.64,0.72-0.98
			c0.19-0.34,0.29-0.83,0.29-1.45c0-0.93-0.3-1.63-0.91-2.09c-0.61-0.46-1.31-0.77-2.09-0.91c-0.86-0.17-1.8-0.29-2.83-0.36
			c-1.03-0.07-1.96-0.18-2.79-0.32c-0.88-0.14-1.71-0.39-2.49-0.75c-0.78-0.36-1.46-0.83-2.04-1.41c-0.58-0.58-1.05-1.29-1.4-2.11
			c-0.35-0.82-0.52-1.76-0.52-2.81c0-1,0.2-1.92,0.61-2.76c0.41-0.83,0.94-1.59,1.61-2.25c0.83-0.83,1.91-1.49,3.22-1.97
			c1.31-0.48,2.72-0.72,4.22-0.72c1.36,0,2.67,0.21,3.92,0.63c1.25,0.42,2.31,1.03,3.17,1.84c0.76,0.72,1.38,1.53,1.84,2.43
			c0.47,0.91,0.71,1.9,0.73,2.97h-4.72c-0.02-0.45-0.14-0.9-0.34-1.34c-0.2-0.44-0.46-0.83-0.77-1.16c-0.4-0.43-0.98-0.76-1.72-1
			c-0.74-0.24-1.46-0.36-2.15-0.36c-0.72,0-1.45,0.09-2.2,0.29c-0.75,0.19-1.39,0.56-1.91,1.11c-0.26,0.29-0.47,0.6-0.63,0.93
			c-0.16,0.34-0.23,0.74-0.23,1.22c0,0.84,0.24,1.47,0.72,1.92c0.48,0.44,1.1,0.72,1.86,0.84c0.81,0.12,1.73,0.23,2.74,0.32
			c1.02,0.09,1.94,0.2,2.77,0.32c0.95,0.14,1.86,0.4,2.7,0.77c0.85,0.37,1.59,0.86,2.22,1.47c0.63,0.61,1.13,1.34,1.5,2.2
			C287.74,360.92,287.93,361.88,287.93,362.96z"/>
		<path class="st4" d="M310.98,353.26c0,1.22-0.19,2.33-0.57,3.33c-0.38,1-0.95,1.86-1.7,2.58c-0.75,0.72-1.69,1.27-2.81,1.67
			c-1.12,0.39-2.41,0.59-3.86,0.59h-5.37v9.09h-4.58v-25.38h9.95c1.45,0,2.74,0.2,3.86,0.59c1.12,0.39,2.06,0.94,2.81,1.64
			c0.75,0.71,1.32,1.56,1.7,2.56C310.79,350.93,310.98,352.04,310.98,353.26z M306.33,353.29c0-1.22-0.36-2.21-1.07-2.97
			c-0.72-0.76-1.85-1.14-3.4-1.14h-5.19v8.2h5.19c1.55,0,2.69-0.38,3.4-1.13C305.97,355.49,306.33,354.51,306.33,353.29z"/>
		<path class="st4" d="M314.42,370.51v-25.38h4.69v25.38H314.42z"/>
		<path class="st4" d="M334.43,349.43v21.08h-4.62v-21.08h-7.52v-4.3h19.65v4.3H334.43z"/>
		<path class="st4" d="M357.69,370.51l-1.65-4.87h-10.09l-1.64,4.87h-4.66l8.91-25.38h5.05l8.91,25.38H357.69z M351,350.79
			l-3.62,10.7h7.23L351,350.79z"/>
		<path class="st4" d="M365.5,370.51v-25.38h4.62v21.01h11.78v4.37H365.5z"/>
		<path class="st4" d="M385.18,370.51v-25.38h4.69v25.38H385.18z"/>
		<path class="st4" d="M395.81,370.51v-25.38h18.08v4.19h-13.46v5.91h11.85v4.15h-11.85v6.95h13.46v4.19H395.81z"/>
		<path class="st4" d="M432.79,370.51l-4.22-9.59h-5.62v9.59h-4.65v-25.38H429c1.5,0,2.81,0.22,3.92,0.66
			c1.11,0.44,2.03,1.03,2.76,1.76c0.73,0.73,1.26,1.56,1.61,2.5c0.35,0.94,0.52,1.93,0.52,2.95c0,1.72-0.42,3.2-1.27,4.46
			c-0.85,1.25-1.97,2.14-3.38,2.67l4.65,10.38H432.79z M433.18,353.01c0-0.5-0.09-0.98-0.28-1.45c-0.19-0.46-0.47-0.88-0.82-1.24
			c-0.36-0.36-0.8-0.64-1.32-0.84c-0.52-0.2-1.11-0.3-1.75-0.3h-6.09v7.59h6.16c1.31,0,2.33-0.32,3.04-0.97
			C432.82,355.15,433.18,354.22,433.18,353.01z"/>
		<path class="st4" d="M46.69,403.73c0,1.5-0.21,2.88-0.63,4.14c-0.42,1.25-1.04,2.33-1.88,3.22c-0.84,0.89-1.87,1.59-3.11,2.09
			c-1.24,0.5-2.68,0.75-4.33,0.75c-1.65,0-3.09-0.25-4.33-0.75c-1.24-0.5-2.28-1.2-3.11-2.09c-0.84-0.9-1.46-1.97-1.88-3.22
			c-0.42-1.25-0.63-2.63-0.63-4.14v-15.64h4.62v15.57c0,1.81,0.43,3.28,1.29,4.4c0.86,1.12,2.21,1.68,4.04,1.68
			c1.84,0,3.19-0.56,4.04-1.68c0.86-1.12,1.29-2.59,1.29-4.4v-15.57h4.62V403.73z"/>
		<path class="st4" d="M67.45,413.46l-10.99-17.43v17.43h-4.55v-25.38h4.9l10.85,17.18v-17.18h4.55v25.38H67.45z"/>
		<path class="st4" d="M78.15,413.46v-25.38h4.69v25.38H78.15z"/>
		<path class="st4" d="M99.31,413.46h-5.08l-8.41-25.38h4.9l6.16,19.37l6.12-19.37h4.65L99.31,413.46z"/>
		<path class="st4" d="M110.62,413.46v-25.38h18.08v4.19h-13.46v5.91h11.85v4.15h-11.85v6.95h13.46v4.19H110.62z"/>
		<path class="st4" d="M147.59,413.46l-4.22-9.59h-5.62v9.59h-4.65v-25.38h10.7c1.5,0,2.81,0.22,3.92,0.66
			c1.11,0.44,2.03,1.03,2.76,1.75c0.73,0.73,1.26,1.56,1.61,2.51c0.35,0.94,0.52,1.92,0.52,2.95c0,1.72-0.42,3.2-1.27,4.46
			c-0.85,1.25-1.97,2.14-3.38,2.67l4.65,10.38H147.59z M147.99,395.96c0-0.5-0.1-0.98-0.29-1.45c-0.19-0.47-0.47-0.88-0.82-1.24
			c-0.36-0.36-0.8-0.64-1.32-0.84c-0.53-0.2-1.11-0.3-1.75-0.3h-6.09v7.59h6.16c1.31,0,2.33-0.32,3.04-0.97
			C147.63,398.11,147.99,397.18,147.99,395.96z"/>
		<path class="st4" d="M175.16,405.91c0,1.19-0.2,2.22-0.59,3.08s-0.9,1.6-1.52,2.22c-0.98,0.98-2.17,1.68-3.56,2.1
			c-1.4,0.42-2.88,0.62-4.46,0.62c-1.36,0-2.7-0.2-4.03-0.59c-1.32-0.39-2.51-1.07-3.56-2.02c-0.76-0.69-1.4-1.55-1.9-2.56
			c-0.5-1.02-0.75-2.13-0.75-3.35h4.73c0,0.62,0.13,1.2,0.38,1.74c0.25,0.54,0.57,1,0.95,1.38c0.55,0.55,1.21,0.91,1.99,1.09
			c0.78,0.18,1.53,0.27,2.27,0.27c0.88,0,1.72-0.1,2.51-0.3c0.79-0.2,1.42-0.55,1.9-1.06c0.29-0.31,0.52-0.64,0.72-0.98
			c0.19-0.35,0.29-0.83,0.29-1.45c0-0.93-0.3-1.63-0.91-2.1c-0.61-0.46-1.31-0.77-2.09-0.91c-0.86-0.17-1.8-0.29-2.83-0.36
			c-1.03-0.07-1.96-0.18-2.79-0.32c-0.88-0.14-1.71-0.39-2.49-0.75c-0.78-0.36-1.46-0.83-2.04-1.41c-0.58-0.59-1.05-1.29-1.4-2.11
			c-0.35-0.82-0.52-1.76-0.52-2.81c0-1,0.2-1.92,0.61-2.76c0.41-0.83,0.94-1.59,1.61-2.26c0.83-0.83,1.91-1.49,3.22-1.97
			c1.31-0.48,2.72-0.71,4.22-0.71c1.36,0,2.67,0.21,3.92,0.63c1.25,0.42,2.31,1.03,3.17,1.84c0.76,0.71,1.38,1.53,1.84,2.43
			c0.47,0.91,0.71,1.9,0.73,2.97h-4.73c-0.02-0.45-0.14-0.9-0.34-1.34c-0.2-0.44-0.46-0.83-0.77-1.16c-0.41-0.43-0.98-0.76-1.72-1
			c-0.74-0.24-1.46-0.36-2.15-0.36c-0.72,0-1.45,0.1-2.2,0.29c-0.75,0.19-1.39,0.56-1.91,1.11c-0.26,0.29-0.47,0.6-0.63,0.93
			c-0.16,0.34-0.23,0.74-0.23,1.22c0,0.84,0.24,1.47,0.72,1.92c0.48,0.44,1.1,0.72,1.86,0.84c0.81,0.12,1.72,0.23,2.74,0.32
			c1.01,0.1,1.94,0.2,2.77,0.32c0.95,0.14,1.85,0.4,2.7,0.77c0.85,0.37,1.59,0.86,2.22,1.47c0.63,0.61,1.13,1.34,1.5,2.2
			C174.97,403.87,175.16,404.84,175.16,405.91z"/>
		<path class="st4" d="M179.31,413.46v-25.38H184v25.38H179.31z"/>
		<path class="st4" d="M199.32,392.38v21.08h-4.62v-21.08h-7.52v-4.29h19.65v4.29H199.32z"/>
		<path class="st4" d="M222.58,413.46l-1.65-4.87h-10.09l-1.65,4.87h-4.65l8.91-25.38h5.05l8.91,25.38H222.58z M215.89,393.74
			l-3.62,10.7h7.23L215.89,393.74z"/>
		<path class="st4" d="M230.39,413.46v-25.38h4.69v25.38H230.39z"/>
		<path class="st4" d="M255.52,413.46l-4.22-9.59h-5.62v9.59h-4.65v-25.38h10.7c1.5,0,2.81,0.22,3.92,0.66
			c1.11,0.44,2.03,1.03,2.76,1.75c0.73,0.73,1.26,1.56,1.61,2.51c0.35,0.94,0.52,1.92,0.52,2.95c0,1.72-0.42,3.2-1.27,4.46
			c-0.85,1.25-1.97,2.14-3.38,2.67l4.65,10.38H255.52z M255.91,395.96c0-0.5-0.1-0.98-0.29-1.45c-0.19-0.47-0.47-0.88-0.82-1.24
			c-0.36-0.36-0.8-0.64-1.32-0.84c-0.53-0.2-1.11-0.3-1.75-0.3h-6.09v7.59h6.16c1.31,0,2.33-0.32,3.04-0.97
			C255.55,398.11,255.91,397.18,255.91,395.96z"/>
		<path class="st4" d="M264.61,413.46v-25.38h18.07v4.19h-13.46v5.91h11.85v4.15h-11.85v6.95h13.46v4.19H264.61z"/>
		<path class="st4" d="M314.54,400.76c0,0.88-0.03,1.77-0.09,2.67c-0.06,0.9-0.2,1.77-0.41,2.63c-0.21,0.86-0.52,1.69-0.91,2.49
			c-0.39,0.8-0.91,1.53-1.56,2.2c-0.84,0.88-1.87,1.56-3.1,2.02c-1.23,0.46-2.57,0.7-4.03,0.7h-9.88v-25.38h9.88
			c1.45,0,2.8,0.23,4.03,0.7c1.23,0.46,2.26,1.14,3.1,2.02c0.64,0.67,1.16,1.4,1.56,2.18c0.39,0.79,0.7,1.61,0.91,2.47
			c0.22,0.86,0.35,1.74,0.41,2.63C314.51,398.99,314.54,399.87,314.54,400.76z M309.85,400.76c0-0.57-0.01-1.18-0.03-1.83
			c-0.02-0.64-0.1-1.28-0.22-1.91c-0.12-0.63-0.3-1.23-0.54-1.81c-0.24-0.57-0.58-1.09-1.04-1.54c-0.43-0.43-0.95-0.77-1.56-1.04
			c-0.61-0.26-1.28-0.39-2.02-0.39h-5.26v17.08h5.26c0.74,0,1.41-0.13,2.02-0.39c0.61-0.26,1.13-0.61,1.56-1.04
			c0.45-0.45,0.8-0.97,1.04-1.54c0.24-0.57,0.42-1.18,0.54-1.81c0.12-0.63,0.19-1.27,0.22-1.93
			C309.84,401.94,309.85,401.33,309.85,400.76z"/>
		<path class="st4" d="M319.05,413.46v-25.38h18.08v4.19h-13.46v5.91h11.85v4.15h-11.85v6.95h13.46v4.19H319.05z"/>
		<path class="st4" d="M364.55,413.46l-10.99-17.43v17.43h-4.54v-25.38h4.9l10.85,17.18v-17.18h4.55v25.38H364.55z"/>
		<path class="st4" d="M390.32,413.46l-1.65-4.87h-10.09l-1.64,4.87h-4.66l8.91-25.38h5.05l8.91,25.38H390.32z M383.63,393.74
			l-3.62,10.7h7.23L383.63,393.74z"/>
		<path class="st4" d="M413.66,413.46l-10.99-17.43v17.43h-4.54v-25.38h4.9l10.84,17.18v-17.18h4.55v25.38H413.66z"/>
		<path class="st4" d="M433.74,392.38v21.08h-4.62v-21.08h-7.52v-4.29h19.65v4.29H433.74z"/>
		<path class="st4" d="M444.44,413.46v-25.38h18.08v4.19h-13.46v5.91h11.85v4.15h-11.85v6.95h13.46v4.19H444.44z"/>
		<path class="st4" d="M485.21,405.91c0,1.19-0.2,2.22-0.59,3.08c-0.39,0.86-0.9,1.6-1.52,2.22c-0.98,0.98-2.17,1.68-3.56,2.1
			c-1.4,0.42-2.88,0.62-4.46,0.62c-1.36,0-2.7-0.2-4.03-0.59c-1.32-0.39-2.51-1.07-3.56-2.02c-0.76-0.69-1.4-1.55-1.9-2.56
			c-0.5-1.02-0.75-2.13-0.75-3.35h4.73c0,0.62,0.13,1.2,0.38,1.74c0.25,0.54,0.57,1,0.95,1.38c0.55,0.55,1.21,0.91,1.99,1.09
			c0.78,0.18,1.53,0.27,2.27,0.27c0.88,0,1.72-0.1,2.51-0.3c0.79-0.2,1.42-0.55,1.9-1.06c0.29-0.31,0.53-0.64,0.72-0.98
			c0.19-0.35,0.29-0.83,0.29-1.45c0-0.93-0.3-1.63-0.91-2.1c-0.61-0.46-1.31-0.77-2.1-0.91c-0.86-0.17-1.8-0.29-2.83-0.36
			c-1.03-0.07-1.96-0.18-2.79-0.32c-0.88-0.14-1.71-0.39-2.49-0.75c-0.78-0.36-1.46-0.83-2.04-1.41c-0.59-0.59-1.05-1.29-1.4-2.11
			c-0.35-0.82-0.52-1.76-0.52-2.81c0-1,0.2-1.92,0.61-2.76c0.4-0.83,0.94-1.59,1.61-2.26c0.83-0.83,1.91-1.49,3.22-1.97
			c1.31-0.48,2.72-0.71,4.22-0.71c1.36,0,2.67,0.21,3.92,0.63c1.25,0.42,2.31,1.03,3.17,1.84c0.76,0.71,1.38,1.53,1.84,2.43
			c0.47,0.91,0.71,1.9,0.74,2.97h-4.73c-0.02-0.45-0.14-0.9-0.34-1.34c-0.2-0.44-0.46-0.83-0.77-1.16c-0.41-0.43-0.98-0.76-1.72-1
			c-0.74-0.24-1.46-0.36-2.15-0.36c-0.72,0-1.45,0.1-2.2,0.29c-0.75,0.19-1.39,0.56-1.91,1.11c-0.26,0.29-0.47,0.6-0.63,0.93
			c-0.16,0.34-0.23,0.74-0.23,1.22c0,0.84,0.24,1.47,0.72,1.92c0.48,0.44,1.1,0.72,1.86,0.84c0.81,0.12,1.73,0.23,2.74,0.32
			c1.02,0.1,1.94,0.2,2.77,0.32c0.96,0.14,1.86,0.4,2.7,0.77c0.85,0.37,1.59,0.86,2.22,1.47c0.63,0.61,1.13,1.34,1.5,2.2
			C485.03,403.87,485.21,404.84,485.21,405.91z"/>
	</g>
</g>
</svg>
